<svg xmlns="http://www.w3.org/2000/svg" width="169.216" height="192.849" viewBox="0 0 169.216 192.849">
  <g id="Group_4105" data-name="Group 4105" transform="translate(-162.891 -1442.693)">
    <path id="Path_3277" data-name="Path 3277" d="M291.614,1652.457v-85.03l75.546-43.874v85.391Z" transform="translate(-44.115 -27.712)" fill="#003493"/>
    <path id="Polygon_335" data-name="Polygon 335" d="M56.123,15.586,15.936,84.608,56.123,153.63h80.6l40.187-69.022L136.726,15.586h-80.6M54.843,0h83.163a13.359,13.359,0,0,1,11.545,6.637l41.484,71.249a13.359,13.359,0,0,1,0,13.444l-41.484,71.249a13.359,13.359,0,0,1-11.545,6.637H54.843A13.359,13.359,0,0,1,43.3,162.579L1.814,91.33a13.359,13.359,0,0,1,0-13.444L43.3,6.637A13.359,13.359,0,0,1,54.843,0Z" transform="translate(162.891 1635.542) rotate(-90)" fill="#fff"/>
  </g>
</svg>
